<svg width="136" height="53" viewBox="0 0 136 53" fill="none" xmlns="http://www.w3.org/2000/svg">
<g clip-path="url(#clip0_104_3)">
<path d="M36.9716 4.94558C36.9716 7.36752 34.9316 9.40668 32.5093 9.40668C30.087 9.40668 28.047 7.36699 28.047 4.94558C28.047 2.52364 30.087 0.483948 32.5093 0.483948C35.0591 0.483948 36.9716 2.52364 36.9716 4.94558ZM28.047 12.9759C28.047 11.956 28.9396 11.0636 29.9596 11.0636H35.0591C36.0785 11.0636 36.9711 11.956 36.9711 12.9759V33.625H28.1745L28.047 12.9759ZM66.4199 14.8882C66.4199 13.8678 67.3125 12.9759 68.3325 12.9759H79.5509C80.5709 12.9759 81.4629 13.8678 81.4629 14.8876V18.8391C81.4629 19.8589 80.5709 20.7514 79.5509 20.7514H68.3325C67.3125 20.7514 66.4199 19.8589 66.4199 18.8391V14.8882ZM63.9976 12.5931C63.9976 5.83748 58.3884 0.483948 51.6318 0.483948C44.8752 0.483948 39.3934 5.83748 39.266 12.4657V33.6255H48.4449V12.7211C48.4449 10.8088 49.9746 9.27874 51.7592 9.27874C53.6718 9.27874 55.0741 10.8088 55.0741 12.7211V33.625H63.8702V32.8605L63.9976 12.5931ZM9.81714 33.625H1.02051V13.8678C1.02051 10.1717 1.91307 7.24011 3.82511 4.94558C4.97254 3.54296 6.37484 2.52364 8.032 1.75862C9.81714 0.99414 11.4748 0.611362 13.2589 0.611362C16.8286 0.611362 19.7607 1.75862 22.183 4.18056C24.6053 6.6025 25.7527 9.5341 25.7527 12.9754C25.7527 16.4177 24.6053 19.3487 22.183 21.7712C19.7607 24.1926 16.9561 25.4673 13.6417 25.4673C13.1315 25.4673 12.3669 25.4673 11.4743 25.3399V15.6527C12.1115 16.0349 12.7492 16.2897 13.3869 16.2897C14.2789 16.2897 15.044 15.9075 15.6812 15.2699C16.3184 14.6328 16.7012 13.7404 16.7012 12.8485C16.7012 11.8286 16.3189 11.0636 15.6812 10.4265C15.044 9.78946 14.2789 9.40668 13.2589 9.40668C10.9646 9.40668 9.81714 10.9362 9.81714 14.1232V33.625ZM111.04 33.625H119.963V14.1226C119.963 10.9362 121.111 9.40615 123.406 9.40615C124.426 9.40615 125.19 9.78893 125.828 10.4265C126.465 11.0636 126.847 11.8286 126.847 12.8485C126.847 13.7404 126.465 14.6328 125.828 15.2699C125.19 15.9069 124.426 16.2897 123.533 16.2897C122.895 16.2897 122.258 16.0349 121.62 15.6527V25.3399C122.513 25.4673 123.278 25.4673 123.788 25.4673C127.103 25.4673 129.907 24.1926 132.329 21.7707C134.751 19.3487 135.899 16.4171 135.899 12.9759C135.899 9.5341 134.751 6.6025 132.329 4.18056C129.907 1.75862 126.975 0.611362 123.406 0.611362C121.62 0.611362 119.963 0.99414 118.179 1.75862C116.521 2.52364 115.119 3.54349 113.972 4.94558C112.059 7.23957 111.167 10.1717 111.167 13.8678L111.04 33.625ZM83.8852 21.6433V1.63175L84.0126 1.24897H93.1916V21.3884C93.1916 23.3002 94.5939 24.8297 96.5064 24.8297C98.291 24.8297 99.8207 23.3002 99.8207 21.3884V1.24843H108.617V21.5158C108.617 28.272 103.008 33.6255 96.251 33.6255C89.4944 33.6255 84.0126 28.272 83.8852 21.6433Z" fill="#FF2400"/>
<path d="M0.485107 37.3725H136V45.4028C136 49.5422 132.644 52.8977 128.504 52.8977H7.98117C3.8412 52.8977 0.485107 49.5422 0.485107 45.4028V37.3725Z" fill="#00CFA6"/>
<path d="M34.1499 50.3559C35.9827 50.3559 37.4267 49.533 38.2963 48.0581L36.8522 47.1427C36.2777 48.0581 35.4081 48.6481 34.1659 48.6481C32.1939 48.6481 30.9052 47.1116 30.9052 45.1549C30.9052 43.1987 32.1784 41.6307 34.1659 41.6307C35.315 41.6307 36.2 42.1275 36.8211 43.0745L38.2807 42.112C37.333 40.6371 35.8895 39.9229 34.1504 39.9229C31.1225 39.9229 29.0103 42.2517 29.0103 45.1549C29.0103 48.1208 30.9823 50.3559 34.1499 50.3559ZM51.3881 50.1696H53.3446L48.8882 39.9695H48.0497L43.6399 50.1696H45.5653L46.4349 47.996H50.5186L51.3881 50.1696ZM47.0715 46.4125L48.485 42.8727L49.8825 46.4125H47.0715ZM62.3206 50.3559C64.4634 50.3559 65.8298 49.176 65.8298 47.3285C65.8298 45.6367 64.9914 44.6892 63.0659 44.1613C61.3424 43.6955 60.9076 43.3695 60.8921 42.6398C60.8766 42.0033 61.4045 41.5996 62.243 41.5996C63.1125 41.5996 63.6249 41.9567 63.8268 42.6864L65.4727 42.0033C65.0069 40.6221 63.951 39.9384 62.3206 39.9384C60.2865 39.9384 59.0598 41.0718 59.0598 42.749C59.0598 44.3942 59.976 45.3102 61.948 45.807C63.5628 46.2106 63.9821 46.6298 63.9821 47.3906C63.9821 48.1979 63.3765 48.6947 62.4138 48.6947C61.3579 48.6947 60.7834 48.291 60.4418 47.2198L58.7803 47.8408C59.2306 49.533 60.3797 50.3559 62.3206 50.3559ZM72.6668 50.1696H74.5767V40.1408H72.6668V50.1696ZM88.5386 40.1408V46.459L82.9176 40.0471H82.0636V50.1696H83.8959V43.8203L89.5169 50.2472H90.3554V40.1408H88.5386ZM102.331 50.3559C105.328 50.3559 107.471 48.0737 107.471 45.1394C107.471 42.2207 105.499 39.9229 102.331 39.9229C99.3501 39.9229 97.2073 42.2207 97.2073 45.1394C97.2073 48.0737 99.1948 50.3559 102.331 50.3559ZM102.331 48.6326C100.406 48.6326 99.1172 47.1111 99.1172 45.1394C99.1172 43.1677 100.406 41.6462 102.331 41.6462C104.272 41.6462 105.561 43.1677 105.561 45.1394C105.561 47.1111 104.272 48.6326 102.331 48.6326Z" fill="black"/>
</g>
<defs>
<clipPath id="clip0_104_3">
<rect width="136" height="53" fill="white"/>
</clipPath>
</defs>
</svg>
